PathFileType	4	(X/Y/Z)	pose_F01_0-96.trc
DataRate	CameraRate	NumFrames	NumMarkers	Units	OrigDataRate	OrigDataStartFrame	OrigNumFrames
30	30	9	21	m	30	24	96
Frame#	Time	CHip			RHip			RKnee			RAnkle			RBigToe			RSmallToe			RHeel			LHip			LKnee			LAnkle			LBigToe			LSmallToe			LHeel			Neck			Nose			RShoulder			RElbow			RWrist			LShoulder			LElbow			LWrist			
		X1	Y1	Z1	X2	Y2	Z2	X3	Y3	Z3	X4	Y4	Z4	X5	Y5	Z5	X6	Y6	Z6	X7	Y7	Z7	X8	Y8	Z8	X9	Y9	Z9	X10	Y10	Z10	X11	Y11	Z11	X12	Y12	Z12	X13	Y13	Z13	X14	Y14	Z14	X15	Y15	Z15	X16	Y16	Z16	X17	Y17	Z17	X18	Y18	Z18	X19	Y19	Z19	X20	Y20	Z20	X21	Y21	Z21	
24	0.8	-0.2678284067536687	1.8218434409705806	-0.5539460660518	-0.27521491218092353	1.817157795923852	-0.49749402408413074	-0.2824046493502433	1.6811453391831457	-0.4935985990340071	-0.28560270019593814	1.5496726591953571	-0.4864766402578757	-0.23918223953697687	1.5196776489045947	-0.4601680231069004	-0.2532764510702111	1.5246006973554087	-0.44026594596682267	-0.2932576453581702	1.5314610369049664	-0.485257843675376	-0.25543127687594774	1.8229875400639577	-0.6143199051013105	-0.26802242443857255	1.6826960866630316	-0.6008854965515197													-0.2652054228570377	1.986279756248771	-0.5806619441234051	-0.21871125523316332	2.048449635705681	-0.5802367279782428	-0.2825032417297356	1.984431305324147	-0.49780696273158787	-0.26973223070678315	1.9189812164714226	-0.43365585674733403	-0.24698419073302352	1.9862603784412833	-0.4294027478742644	-0.24766450267580076	1.9904586055454263	-0.6616738278086784	-1.127065365737923	1.8596459605453308	0.16305350111256056	-0.21555229782337382	1.9662868884619222	-0.7188588301113785
25	0.8333333333333334	-0.26751091069025795	1.8294520068978584	-0.5515624440526224	-0.2757370032144603	1.8259928074706846	-0.4984743138300929	-0.28258759895892066	1.685827078831269	-0.49365396430899094	-0.2866273143789019	1.5506662066815229	-0.481015033447621	-0.23919726925982532	1.5197588980146177	-0.4601904218989576	-0.253386484486699	1.5251119213271014	-0.44031669462854517	-0.2932576453581702	1.5314610369049664	-0.485257843675376	-0.25591537507877643	1.8294786109833805	-0.614733385992061	-0.26682978608054414	1.687643254705906	-0.5983124306375539													-0.26536851494845654	1.9890974625295108	-0.5814503836518153	-0.2190006144666379	2.0436727624286473	-0.5800179606639756	-0.28351622626290107	1.9872214237850454	-0.5012540092649839	-0.2612317165389692	1.9284002932003923	-0.4263703649023995	-0.2520433205794204	1.996915123304226	-0.4648445317911167	-0.24812732794780357	1.993010161801412	-0.6627267201892367	-0.21620247902601267	1.9514959068736641	-0.7413699909220915	-0.20916726703838248	2.015152435146667	-0.6916454414615372
26	0.8666666666666667	-0.2683426305786955	1.82645181173204	-0.5543641542039082	-0.2758756874819083	1.8228289906597928	-0.49810212370129536	-0.2799140068562854	1.682190166628545	-0.491737672888218	-0.2866448770257859	1.550884978496766	-0.4809855021801458	-0.23921229898267377	1.5198401471246406	-0.46021282069101477	-0.2533274796995803	1.5249240282726406	-0.4403200026001979	-0.2932576453581702	1.5314610369049664	-0.485257843675376	-0.2588841442312048	1.8274691289355236	-0.6154695238206835	-0.26658506400980964	1.6859664462256065	-0.5985074597324428													-0.26612859216276574	1.9888888196946435	-0.5840740417023582	-0.2198458169941805	2.044946126112108	-0.5829253173890149	-0.2834585264889289	1.987039225604745	-0.5014301881984405	-0.2603661710327185	1.9253621682694193	-0.4315353930357996	-0.2530109595916781	1.987855571742683	-0.4656800319886581	-0.25071275639443164	1.9929417626584844	-0.6627525848678888	-0.21596741343584636	1.9556847024752955	-0.7415396183587809	-0.2107637504392053	2.014090117131747	-0.6865854767605054
27	0.9	-0.2713849652344939	1.8267381575861599	-0.5555130034429384	-0.27867669849736754	1.823777882306226	-0.4993507321444147	-0.28115793462283667	1.683097939294207	-0.49046836595835736	-0.28661489357290637	1.550715355470326	-0.48099620524932496	-0.2392273287055222	1.5199213962346636	-0.46023521948307194	-0.2535063832298195	1.5232391077794922	-0.4396875058726002	-0.2932576453581702	1.5314610369049664	-0.485257843675376	-0.26315999154114755	1.8278607249713337	-0.6113333705392271	-0.26176934442546773	1.6857560340186797	-0.6032268231407724													-0.2680497212777497	1.9914660042186043	-0.5823216441293239	-0.21998508910927292	2.0449575488394838	-0.5829173827437887	-0.2835507505576548	1.9871578615106853	-0.5012936121351841	-0.2651376559991318	1.924246896330372	-0.4299595823763402	-0.24991887801766927	1.9870043728026774	-0.4555957538666664	-0.2521229681283047	1.9955289928698665	-0.6582908002786779	-0.22537404022078333	1.9558410193714943	-0.7440497122868076	-0.2174990546940647	2.006504224401581	-0.708767017121256
28	0.9333333333333333	-0.2733849884418268	1.826536590722528	-0.5619987119433961	-0.27980828441475264	1.8240524082267655	-0.5026962330138829	-0.28308231220858965	1.6836224324802467	-0.4927494416781774	-0.2864606945697395	1.549550966689437	-0.48122931620128545	-0.24077313802736258	1.5208563387144607	-0.4594626234688031	-0.25334763081065653	1.5250823040970953	-0.44028309039368074	-0.2932576453581702	1.5314610369049664	-0.485257843675376	-0.262886929007351	1.8293959496175896	-0.620001070644874	-0.2550054079290112	1.6908851954021213	-0.6063383517337856													-0.2691597533478808	1.9904776982271255	-0.5854269755879502	-0.22003148955067076	2.0424298081098753	-0.5824224353424707	-0.28371828270653704	1.98603839524398	-0.5012089142828153	-0.2688917144639107	1.9191683434936926	-0.4307189893874327	-0.2570414658590308	1.9901394638876317	-0.44541692440791725	-0.25382438513419925	1.9982117036118545	-0.6648649651682608	-0.2320415674222341	1.9571764269612386	-0.7572904796986646	-0.23075487611803752	2.0005286221511187	-0.7243168649991597
29	0.9666666666666667	-0.27535346675026445	1.8247913596497753	-0.568166064251755	-0.28669921613966354	1.820730931312161	-0.5079037926553348	-0.28375289516910307	1.6830911318850368	-0.49652473731854035	-0.286331321494825	1.549175718120116	-0.4812298008353146	-0.24231894734920295	1.5217912811942576	-0.4586900274545343	-0.2549383715412922	1.5255331335809543	-0.43862449605350345	-0.2932576453581702	1.5314610369049664	-0.485257843675376	-0.26682968310209626	1.8284583774983634	-0.6240429309217722	-0.2536056668387939	1.6920258983573395	-0.612506767717161													-0.2712860269716398	1.9878547701103384	-0.5912402029934555	-0.2209745023583268	2.041066945805739	-0.5851381980300983	-0.2856497998044892	1.985797654147984	-0.5077125004948074	-0.283907564302263	1.9117931409447189	-0.4346121670476709	-0.2558608543156079	1.9691916263818734	-0.4130600733417487	-0.2644437710092861	1.9916962086514653	-0.661086746537885	-0.24786154251546472	1.9494138576664524	-0.7605324231499436	-0.2225058904035104	1.9999847099066954	-0.7361174048303795
30	1.0	-0.27739841587481523	1.822593445098395	-0.5744125851104429	-0.2869966705280389	1.816628054227633	-0.5160069997089524	-0.28602602048305753	1.684552573947917	-0.5030440403521798	-0.28641266858694914	1.549350070817769	-0.48131921288444635	-0.24386475667104335	1.5227262236740544	-0.4579174314402654	-0.25299488222947675	1.52527722699853	-0.44109947116290404	-0.2932576453581702	1.5314610369049664	-0.485257843675376	-0.2698745325981042	1.8240791704348254	-0.6332783726149607	-0.259880689205797	1.6936156488934855	-0.623246526806265													-0.2734785541697793	1.9844347532566782	-0.5973192959983431	-0.2239280888475665	2.039704611713176	-0.5856755898238655	-0.2890624690115779	1.9802499010027552	-0.5162832423025054	-0.29918843890416513	1.9011532099659763	-0.4438603993827743	-0.25302773663163275	1.921283630943056	-0.38472661173643097	-0.26526842270399315	1.986877199567713	-0.6718919551583232	-0.25830836870700424	1.9386484177660628	-0.7644019903189488	-0.2140012126338864	1.9885463688834029	-0.7718804452192412
31	1.0333333333333334	-0.27945312910626546	1.8196668835593108	-0.589214926778864	-0.28927483182619923	1.8164115812731516	-0.53109032154352	-0.2854749654875493	1.682951090036348	-0.5039372838247591	-0.28641266858694914	1.549350070817769	-0.48131921288444635	-0.24541056599288372	1.5236611661538515	-0.4571448354259966	-0.25505889700870454	1.5258430008793966	-0.43870024370887123	-0.2932576453581702	1.5314610369049664	-0.485257843675376	-0.2705690444222805	1.8224108174173468	-0.6449588536296674	-0.27299653777004246	1.686608567472519	-0.6305214103031035													-0.27432295257567735	1.9825253881722045	-0.6084111545474787	-0.2267655936829948	2.0376454996311777	-0.5946008190706701	-0.2921651826869708	1.9756543093766765	-0.5250943830011991	-0.3070603309777738	1.8921612485428054	-0.4739075441084133	-0.27809666520724585	1.9026318698271834	-0.3990636370112352	-0.2562923127154	1.9876729958510495	-0.689044377541514	-0.9705112439687147	1.8476209619740616	-0.08164814422224516	-0.2107181212533812	1.971088842059577	-0.776890119516774
32	1.0666666666666667	-0.28324273650515513	1.8216275412860616	-0.6023617407478454	-0.29323599477149953	1.8173748741802473	-0.544429765651575	-0.2882052205813981	1.689276034738628	-0.5148296476739969	-0.28641266858694914	1.549350070817769	-0.48131921288444635	-0.24695637531472409	1.5245961086336486	-0.4563722394117278	-0.25784506887584546	1.526888390037279	-0.4403551237582604	-0.2932576453581702	1.5314610369049664	-0.485257843675376	-0.27604263392123396	1.824151549364615	-0.6642032742386864	-0.27378321357388585	1.689545280763856	-0.6429087248247565													-0.2762344649330992	1.9826159755866464	-0.6148434668239228	-0.22660869466962835	2.039127117788426	-0.6034299197830955	-0.29230773297843576	1.9757739701887436	-0.5336530761546752	-0.31760837367951655	1.8932645329503432	-0.49782098204091685	-0.2885868159854352	1.9013569043370844	-0.42302054238331654	-0.25895271408233883	1.987981064111777	-0.6982213235769646	-0.9567179663275776	1.8474006310338622	-0.10111685792401183	-0.2075575174701996	1.9656000267407654	-0.7863895209074233
